<?xml version="1.0" encoding="UTF-8" standalone="no"?>
<!-- Created with Inkscape (http://www.inkscape.org/) -->

<svg
   width="1024mm"
   height="500mm"
   viewBox="0 0 1024 500"
   version="1.1"
   id="svg5"
   xml:space="preserve"
   inkscape:version="1.2 (dc2aedaf03, 2022-05-15)"
   sodipodi:docname="featureGraphics.svg"
   inkscape:export-filename="featureGraphics.png"
   inkscape:export-xdpi="25.4"
   inkscape:export-ydpi="25.4"
   xmlns:inkscape="http://www.inkscape.org/namespaces/inkscape"
   xmlns:sodipodi="http://sodipodi.sourceforge.net/DTD/sodipodi-0.dtd"
   xmlns="http://www.w3.org/2000/svg"
   xmlns:svg="http://www.w3.org/2000/svg"><sodipodi:namedview
     id="namedview7"
     pagecolor="#ffffff"
     bordercolor="#666666"
     borderopacity="1.0"
     inkscape:showpageshadow="2"
     inkscape:pageopacity="0.0"
     inkscape:pagecheckerboard="0"
     inkscape:deskcolor="#d1d1d1"
     inkscape:document-units="mm"
     showgrid="false"
     inkscape:zoom="0.26645962"
     inkscape:cx="1298.5082"
     inkscape:cy="853.7879"
     inkscape:window-width="1920"
     inkscape:window-height="1011"
     inkscape:window-x="0"
     inkscape:window-y="32"
     inkscape:window-maximized="1"
     inkscape:current-layer="layer1" /><defs
     id="defs2" /><g
     inkscape:label="Layer 1"
     inkscape:groupmode="layer"
     id="layer1"><rect
       style="fill:#ffffff;stroke-width:0.264583"
       id="rect739"
       width="1024"
       height="500"
       x="0"
       y="0"
       ry="9.3998878e-16" /><rect
       style="fill:#c00000;fill-opacity:1;stroke:none;stroke-width:1.28312"
       id="rect146"
       width="1022.8556"
       height="250"
       x="0.57220459"
       y="125" /><path
       d="m 461.11192,337.5 q -4.14483,0 -7.02303,-2.87819 -2.87839,-2.87842 -2.87839,-7.02306 v -15.65784 q -6.67753,-3.68428 -9.7862,-10.59226 -3.1085,-6.90781 -3.1085,-14.73674 v -91.41455 q 0,-17.03952 17.61512,-24.86843 17.61512,-7.82893 56.29935,-7.82893 38.22368,0 55.83881,7.82893 17.61513,7.82891 17.61513,24.86843 v 91.41455 q 0,7.82893 -3.10851,14.73674 -3.10847,6.90798 -9.78619,10.59226 v 15.65784 q 0,4.14464 -2.87821,7.02306 -2.87839,2.87819 -7.02305,2.87819 -4.14481,0 -7.02303,-2.87819 -2.87838,-2.87842 -2.87838,-7.02306 v -8.98032 h -81.97368 v 8.98032 q 0,4.14464 -2.87837,7.02306 -2.87822,2.87819 -7.02287,2.87819 z m -8.98031,-94.63809 h 119.7368 v -39.83563 h -119.7368 z m 24.40788,50.42754 q 5.29604,0 8.98033,-3.6841 3.68408,-3.68427 3.68408,-8.98032 0,-5.29602 -3.68408,-8.98031 -3.68429,-3.68409 -8.98033,-3.68409 -5.29605,0 -8.98031,3.68409 -3.68409,3.68429 -3.68409,8.98031 0,5.29605 3.68409,8.98032 3.68426,3.6841 8.98031,3.6841 z m 70.92104,0 q 5.29603,0 8.9803,-3.6841 3.68429,-3.68427 3.68429,-8.98032 0,-5.29602 -3.68429,-8.98031 -3.68427,-3.68409 -8.9803,-3.68409 -5.29604,0 -8.98014,3.68409 -3.68428,3.68429 -3.68428,8.98031 0,5.29605 3.68428,8.98032 3.6841,3.6841 8.98014,3.6841 z"
       id="path597"
       style="fill:#ffffff;stroke-width:4.60526" /></g></svg>
